<svg width="64" height="64" viewBox="0 0 64 64" fill="none" xmlns="http://www.w3.org/2000/svg">
  <rect width="64" height="64" fill="white"/>

  <!-- Left Wing -->
  <rect x="8" y="28" width="14" height="28" fill="#90CAF9" stroke="#1976D2" stroke-width="2"/>

  <!-- Right Wing -->
  <rect x="42" y="28" width="14" height="28" fill="#90CAF9" stroke="#1976D2" stroke-width="2"/>

  <!-- Tower Base -->
  <rect x="24" y="20" width="16" height="36" fill="#E3F2FD" stroke="#1976D2" stroke-width="2"/>

  <!-- Roof -->
  <path d="M32 8L20 20H44L32 8Z" fill="#1976D2"/>

  <!-- Clock Face -->
  <circle cx="32" cy="26" r="6" fill="white" stroke="#1976D2" stroke-width="1.5"/>

  <!-- Minute Hand (Up) -->
  <line x1="32" y1="26" x2="32" y2="19" stroke="#1976D2" stroke-width="2" stroke-linecap="round"/>

  <!-- Hour Hand (Right) -->
  <line x1="32" y1="26" x2="39" y2="26" stroke="#1976D2" stroke-width="2" stroke-linecap="round"/>

  <!-- Arched Door -->
  <path d="M28 56V47C28 45.3431 29.3431 44 31 44H33C34.6569 44 36 45.3431 36 47V56H28Z" fill="#1976D2"/>
  <circle cx="34.5" cy="50" r="0.75" fill="white"/>

  <!-- Windows on wings -->
  <rect x="11" y="34" width="8" height="6" fill="white" stroke="#1976D2" stroke-width="1"/>
  <rect x="45" y="34" width="8" height="6" fill="white" stroke="#1976D2" stroke-width="1"/>

  <!-- Flagpole and Flag -->
  <line x1="32" y1="8" x2="32" y2="3" stroke="#1976D2" stroke-width="1"/>
  <path d="M32 3L36 5L32 7V3Z" fill="#F44336"/>
</svg>

